<?xml version="1.0" encoding="utf-8"?>
<!-- Generator: Adobe Illustrator 24.3.0, SVG Export Plug-In . SVG Version: 6.00 Build 0)  -->
<svg version="1.1" id="Layer_1" xmlns="http://www.w3.org/2000/svg" xmlns:xlink="http://www.w3.org/1999/xlink" x="0px" y="0px"
	 viewBox="0 0 108 100" style="enable-background:new 0 0 108 100;" xml:space="preserve">
<style type="text/css">
	.st0{fill:#A6B5FF;}
	.st1{fill:#1531FF;}
</style>
<g>
	<g>
		<polygon class="st0" points="57.6,30.5 57.6,33.8 61.5,33.1 60.2,30 		"/>
		<path class="st0" d="M50.4,31.8l-13.2,2.4c0.4,1,0.6,2.1,0.6,3.2l12.6-2.3L50.4,31.8z"/>
		<path class="st0" d="M39.5,55.1l-4.9-11.8c-0.9,0.6-1.9,1-3,1.2l5.1,12.4L39.5,55.1z"/>
		<polygon class="st0" points="40.6,66 43.8,65.4 42.3,61.8 39.6,63.6 		"/>
		<path class="st0" d="M87,68c0.3-0.5,0.6-1.1,1-1.5l-3.1-1.7c-0.2,0.6-0.4,1.2-0.7,1.7c-0.3,0.6-0.7,1.1-1.1,1.5l3.1,1.7
			C86.4,69.1,86.7,68.6,87,68z"/>
		<path class="st0" d="M60,90c0.6,0.9,1.1,1.9,1.3,2.9L88,81.1c-0.7-0.9-1.2-1.8-1.6-2.8L60,90z"/>
		<path class="st0" d="M50.4,87.9l0-6.4l-3.8-9.3l-3.2,0.6l6.4,15.5C50,88.2,50.2,88,50.4,87.9z"/>
		<path class="st0" d="M95.3,62c0.7-0.1,1.5-0.2,2.2-0.2c0.3,0,0.7,0,1,0l-3.5-23c-1,0.3-2.1,0.4-3.2,0.5L95.3,62z"/>
		<path class="st0" d="M78.7,29.9c0-0.1,0-0.1-0.1-0.2c-0.3-1-0.5-2-0.5-3l-10.7,2l1.3,3L78.7,29.9z"/>
		<path class="st0" d="M27.8,41.9c1.4,0.8,2.9,0.9,4.3,0.4l-7-3.8C25.5,39.9,26.4,41.2,27.8,41.9z"/>
		<path class="st0" d="M33,32.3c-1.4-0.8-2.9-0.9-4.3-0.4l7,3.8C35.3,34.3,34.4,33,33,32.3z"/>
	</g>
	<path class="st1" d="M38.8,61.7l2.8-1.8l0,0l5.6-3.6c-0.7-0.8-1.3-1.7-1.7-2.7l-5.1,3.3v0l-2.8,1.8l0,0l-10.7,6.8
		c0.7,0.8,1.3,1.7,1.7,2.7L38.8,61.7L38.8,61.7z"/>
	<path class="st1" d="M45.8,70.3l24.9-4.6c-0.1-0.3-0.2-0.5-0.3-0.8c-0.2-0.8-0.3-1.6-0.3-2.4l-16.9,3.1l-0.8,0.2l-7.8,1.4l0,0
		l-3.2,0.6l0,0l-12,2.2c0.3,1,0.5,2.1,0.6,3.2l12.7-2.3L45.8,70.3L45.8,70.3z"/>
	<path class="st1" d="M66,44.1l-1.2-3l-4,2.6c0.7,0.8,1.3,1.7,1.8,2.7L66,44.1z"/>
	<path class="st1" d="M52.4,59.2l0,4.6l3.2-0.6l0-4c-0.5,0.1-1.1,0.1-1.6,0.1C53.5,59.4,52.9,59.3,52.4,59.2z"/>
	<path class="st1" d="M52.4,87.2C52.9,87,53.5,87,54,87c0.5,0,1.1,0.1,1.6,0.2l0-16.6l-3.2,0.6L52.4,87.2z"/>
	<path class="st1" d="M81.1,30.9c0,0,0,0.1,0.1,0.1c0,0,0,0,0,0.1c1,2,2.6,3.7,4.7,4.9c5.5,3,12.4,1,15.4-4.5c3-5.5,1-12.4-4.5-15.4
		s-12.4-1-15.4,4.5C79.6,23.8,79.6,27.6,81.1,30.9C81.1,30.8,81.1,30.8,81.1,30.9z"/>
	<path class="st1" d="M72.1,40.2l9-5.8c-0.7-0.8-1.3-1.7-1.7-2.7l-8.5,5.4L72.1,40.2z"/>
	<path class="st1" d="M102.3,65c-4.8-2.6-10.8-0.9-13.5,3.8c0,0,0,0.1,0,0.1c0,0,0,0.1-0.1,0.1c-2.7,4.9-0.9,11,4,13.6
		c4.9,2.7,11,0.9,13.6-4C109,73.7,107.2,67.6,102.3,65z"/>
	<path class="st1" d="M56.7,89.6C55.8,89.2,54.9,89,54,89c0,0,0,0,0,0c0,0,0,0,0,0c-2,0-3.8,1-4.8,2.9c-1.5,2.7-0.5,6,2.2,7.5
		s6,0.5,7.5-2.2C60.3,94.4,59.3,91.1,56.7,89.6z"/>
	<path class="st1" d="M48,10c-0.5-0.7-0.9-1.5-1.2-2.3c-0.1-0.2-0.1-0.4-0.1-0.6L20,18.9c0.7,0.9,1.2,1.8,1.6,2.8L48,10z"/>
	<path class="st1" d="M72.6,65.2c0.5,1,1.3,1.9,2.3,2.5c2.7,1.5,6,0.5,7.5-2.2c0,0,0,0,0,0c0,0,0-0.1,0-0.1c0,0,0-0.1,0-0.1
		c0,0,0,0,0,0c1.3-2.6,0.3-5.9-2.3-7.3c-2.6-1.4-5.8-0.5-7.4,2c0,0,0,0,0,0c0,0.1-0.1,0.1-0.1,0.2c0,0,0,0,0,0c0,0,0,0.1-0.1,0.1
		c0,0,0,0,0,0c0,0,0,0,0,0.1c0,0,0,0.1,0,0.1c0,0,0,0,0,0C71.9,62.1,71.9,63.8,72.6,65.2C72.6,65.2,72.6,65.2,72.6,65.2z"/>
	<path class="st1" d="M76.3,55.5l-18-43.8c-0.9,0.6-1.9,1-3,1.2l18,43.8C74.2,56.1,75.2,55.7,76.3,55.5z"/>
	<path class="st1" d="M9.5,38.2l3.5,23c1-0.3,2.1-0.5,3.2-0.5L12.7,38c-0.7,0.1-1.5,0.2-2.2,0.2C10.1,38.3,9.8,38.2,9.5,38.2z"/>
	<path class="st1" d="M26.9,69.1c0-0.1,0-0.1-0.1-0.2c0,0,0,0,0,0c-1-2-2.6-3.7-4.7-4.9c-5.5-3-12.4-1-15.4,4.5
		c-3,5.5-1,12.4,4.5,15.4c5.5,3,12.4,1,15.4-4.5C28.4,76.2,28.4,72.4,26.9,69.1C26.9,69.2,26.9,69.2,26.9,69.1z"/>
	<path class="st1" d="M52.4,12.8l0,20l0,1.8l0,0l0,6.1c0.5-0.1,1-0.1,1.6-0.1c0.6,0,1.1,0.1,1.7,0.2l0-22L53.2,13
		C52.9,12.9,52.7,12.9,52.4,12.8z"/>
	<path class="st1" d="M70.4,61c0.2-0.6,0.4-1.2,0.7-1.7c0.3-0.6,0.7-1.1,1.1-1.5l-9.2-5c0,0,0,0,0,0l-1.8-1c0.8-3.2-0.6-6.6-3.6-8.2
		c-1-0.5-2-0.8-3.1-0.9c0,0,0,0,0,0c-0.1,0-0.1,0-0.2,0c0,0,0,0,0,0c-0.1,0-0.1,0-0.2,0c0,0,0,0,0,0c0,0,0,0-0.1,0c0,0-0.1,0-0.1,0
		c0,0,0,0-0.1,0c0,0-0.1,0-0.1,0c0,0,0,0,0,0c-1.8,0.1-3.6,0.9-4.9,2.3l-1.8-1c0,0,0,0,0,0L21.8,30.3c-0.2,0.6-0.5,1.1-0.8,1.7
		c-0.3,0.5-0.6,1.1-1,1.5l25.1,13.7c0,0,0,0,0,0l1.8,1c-0.8,3.2,0.6,6.7,3.6,8.3c1,0.5,2,0.8,3.1,0.9c0,0,0,0,0,0c0.1,0,0.1,0,0.2,0
		c0.1,0,0.2,0,0.2,0c0,0,0.1,0,0.1,0c0,0,0.1,0,0.1,0c0,0,0.1,0,0.1,0c0,0,0.1,0,0.1,0c0,0,0,0,0,0c1.9-0.1,3.7-0.9,5-2.4l1.8,1v0
		L70.4,61z"/>
	<path class="st1" d="M10.1,36.3c0,0,0.1,0,0.1,0c0,0,0,0,0.1,0c0.1,0,0.1,0,0.2,0c0,0,0,0,0,0c0,0,0,0,0,0c0.1,0,0.1,0,0.2,0
		c0,0,0,0,0.1,0c0,0,0.1,0,0.1,0c0,0,0.1,0,0.1,0c0,0,0,0,0.1,0c3.4-0.2,6.6-2.1,8.3-5.2c2.7-4.9,0.9-11-4-13.6
		c-4.9-2.7-11-0.9-13.6,4c-2.7,4.9-0.9,11,4,13.6C7.1,35.8,8.6,36.2,10.1,36.3z"/>
	<ellipse class="st1" cx="54" cy="5.5" rx="5.5" ry="5.5"/>
</g>
</svg>
